# MagicaVoxel @ Ephtracy

# group
o 

# material
mtllib free_bird.mtl
usemtl palette

# normals
vn -1 0 0
vn 1 0 0
vn 0 0 1
vn 0 0 -1
vn 0 -1 0
vn 0 1 0

# texcoords
vt 0.853516 0.5
vt 0.951172 0.5
vt 0.966797 0.5
vt 0.982422 0.5

# verts
v 4.1 7.3 -2.9
v 4.1 7.3 -3
v 4.1 7.4 -2.9
v 4.1 7.4 -3
v 4.2 7.4 -2.8
v 4.2 7.4 -2.9
v 4.2 7.4 -3
v 4.2 7.4 -3.1
v 4.2 7.5 -2.8
v 4.2 7.5 -2.9
v 4.2 7.5 -3
v 4.2 7.5 -3.1
v 4.3 7.3 -2.8
v 4.3 7.3 -2.9
v 4.3 7.3 -3
v 4.3 7.3 -3.1
v 4.3 7.4 -2.8
v 4.3 7.4 -2.9
v 4.3 7.4 -3
v 4.3 7.4 -3.1
v 4.3 7.5 -2.8
v 4.3 7.5 -2.9
v 4.3 7.5 -3
v 4.3 7.5 -3.1
v 4.3 7.6 -2.8
v 4.3 7.6 -3.1
v 4.4 7.1 -2.8
v 4.4 7.1 -3.1
v 4.4 7.3 -2.8
v 4.4 7.3 -2.9
v 4.4 7.3 -3
v 4.4 7.3 -3.1
v 4.5 7 -2.8
v 4.5 7 -3.1
v 4.5 7.1 -2.8
v 4.5 7.1 -3.1
v 4.6 7.2 -2.3
v 4.6 7.2 -2.5
v 4.6 7.2 -2.8
v 4.6 7.2 -3.1
v 4.6 7.2 -3.4
v 4.6 7.2 -3.6
v 4.6 7.3 -2.3
v 4.6 7.3 -2.5
v 4.6 7.3 -2.8
v 4.6 7.3 -3.1
v 4.6 7.3 -3.4
v 4.6 7.3 -3.6
v 5.3 7.2 -2.7
v 5.3 7.2 -2.8
v 5.3 7.2 -3.1
v 5.3 7.2 -3.2
v 5.3 7.3 -2.7
v 5.3 7.3 -2.8
v 5.3 7.3 -3.1
v 5.3 7.3 -3.2
v 4.6 7.3 -2.8
v 4.6 7.3 -3.1
v 4.6 7.6 -2.8
v 4.6 7.6 -3.1
v 4.8 7.2 -2.3
v 4.8 7.2 -2.4
v 4.8 7.2 -3.5
v 4.8 7.2 -3.6
v 4.8 7.3 -2.3
v 4.8 7.3 -2.4
v 4.8 7.3 -3.5
v 4.8 7.3 -3.6
v 4.9 7.2 -2.4
v 4.9 7.2 -2.7
v 4.9 7.2 -2.8
v 4.9 7.2 -3.1
v 4.9 7.2 -3.2
v 4.9 7.2 -3.5
v 4.9 7.3 -2.4
v 4.9 7.3 -2.7
v 4.9 7.3 -2.8
v 4.9 7.3 -3.1
v 4.9 7.3 -3.2
v 4.9 7.3 -3.5
v 5 7 -2.8
v 5 7 -3.1
v 5 7.1 -2.8
v 5 7.1 -3.1
v 5.1 7.1 -2.8
v 5.1 7.1 -3.1
v 5.1 7.2 -2.8
v 5.1 7.2 -3.1
v 5.4 7.2 -2.7
v 5.4 7.2 -2.8
v 5.4 7.2 -2.9
v 5.4 7.2 -3
v 5.4 7.2 -3.1
v 5.4 7.2 -3.2
v 5.4 7.3 -2.7
v 5.4 7.3 -2.8
v 5.4 7.3 -2.9
v 5.4 7.3 -3
v 5.4 7.3 -3.1
v 5.4 7.3 -3.2
v 5.5 7.2 -2.8
v 5.5 7.2 -2.9
v 5.5 7.2 -3
v 5.5 7.2 -3.1
v 5.5 7.3 -2.8
v 5.5 7.3 -2.9
v 5.5 7.3 -3
v 5.5 7.3 -3.1
v 4.6 7.2 -2.3
v 4.6 7.3 -2.3
v 4.8 7.2 -2.3
v 4.8 7.3 -2.3
v 4.8 7.2 -2.4
v 4.8 7.3 -2.4
v 4.9 7.2 -2.4
v 4.9 7.3 -2.4
v 5.3 7.2 -2.7
v 5.3 7.3 -2.7
v 5.4 7.2 -2.7
v 5.4 7.3 -2.7
v 4.2 7.4 -2.8
v 4.2 7.5 -2.8
v 4.3 7.3 -2.8
v 4.3 7.4 -2.8
v 4.3 7.5 -2.8
v 4.3 7.6 -2.8
v 4.4 7.1 -2.8
v 4.4 7.3 -2.8
v 4.5 7 -2.8
v 4.5 7.1 -2.8
v 4.5 7.3 -2.8
v 4.6 7.2 -2.8
v 4.6 7.3 -2.8
v 4.6 7.6 -2.8
v 4.9 7.2 -2.8
v 4.9 7.3 -2.8
v 5 7 -2.8
v 5 7.1 -2.8
v 5.1 7.1 -2.8
v 5.1 7.2 -2.8
v 5.1 7.3 -2.8
v 5.3 7.2 -2.8
v 5.3 7.3 -2.8
v 5.4 7.2 -2.8
v 5.4 7.3 -2.8
v 5.5 7.2 -2.8
v 5.5 7.3 -2.8
v 4.1 7.3 -2.9
v 4.1 7.4 -2.9
v 4.2 7.4 -2.9
v 4.3 7.3 -2.9
v 4.3 7.4 -2.9
v 4.2 7.4 -3
v 4.2 7.5 -3
v 4.3 7.4 -3
v 4.3 7.5 -3
v 5.4 7.2 -3
v 5.4 7.3 -3
v 5.5 7.2 -3
v 5.5 7.3 -3
v 4.2 7.4 -2.9
v 4.2 7.5 -2.9
v 4.3 7.4 -2.9
v 4.3 7.5 -2.9
v 5.4 7.2 -2.9
v 5.4 7.3 -2.9
v 5.5 7.2 -2.9
v 5.5 7.3 -2.9
v 4.1 7.3 -3
v 4.1 7.4 -3
v 4.2 7.4 -3
v 4.3 7.3 -3
v 4.3 7.4 -3
v 4.2 7.4 -3.1
v 4.2 7.5 -3.1
v 4.3 7.3 -3.1
v 4.3 7.4 -3.1
v 4.3 7.5 -3.1
v 4.3 7.6 -3.1
v 4.4 7.1 -3.1
v 4.4 7.3 -3.1
v 4.5 7 -3.1
v 4.5 7.1 -3.1
v 4.5 7.3 -3.1
v 4.6 7.2 -3.1
v 4.6 7.3 -3.1
v 4.6 7.6 -3.1
v 4.9 7.2 -3.1
v 4.9 7.3 -3.1
v 5 7 -3.1
v 5 7.1 -3.1
v 5.1 7.1 -3.1
v 5.1 7.2 -3.1
v 5.1 7.3 -3.1
v 5.3 7.2 -3.1
v 5.3 7.3 -3.1
v 5.4 7.2 -3.1
v 5.4 7.3 -3.1
v 5.5 7.2 -3.1
v 5.5 7.3 -3.1
v 5.3 7.2 -3.2
v 5.3 7.3 -3.2
v 5.4 7.2 -3.2
v 5.4 7.3 -3.2
v 4.8 7.2 -3.5
v 4.8 7.3 -3.5
v 4.9 7.2 -3.5
v 4.9 7.3 -3.5
v 4.6 7.2 -3.6
v 4.6 7.3 -3.6
v 4.8 7.2 -3.6
v 4.8 7.3 -3.6
v 4.5 7 -2.8
v 5 7 -2.8
v 4.5 7 -3.1
v 5 7 -3.1
v 4.4 7.1 -2.8
v 4.5 7.1 -2.8
v 5 7.1 -2.8
v 5.1 7.1 -2.8
v 4.4 7.1 -3.1
v 4.5 7.1 -3.1
v 5 7.1 -3.1
v 5.1 7.1 -3.1
v 4.6 7.2 -2.3
v 4.8 7.2 -2.3
v 4.8 7.2 -2.4
v 4.9 7.2 -2.4
v 4.6 7.2 -2.5
v 4.7 7.2 -2.5
v 4.7 7.2 -2.6
v 4.8 7.2 -2.6
v 4.8 7.2 -2.7
v 4.9 7.2 -2.7
v 5.3 7.2 -2.7
v 5.4 7.2 -2.7
v 4.6 7.2 -2.8
v 4.9 7.2 -2.8
v 5.1 7.2 -2.8
v 5.3 7.2 -2.8
v 5.4 7.2 -2.8
v 5.5 7.2 -2.8
v 5.4 7.2 -2.9
v 5.5 7.2 -2.9
v 5.4 7.2 -3
v 5.5 7.2 -3
v 4.6 7.2 -3.1
v 4.9 7.2 -3.1
v 5.1 7.2 -3.1
v 5.3 7.2 -3.1
v 5.4 7.2 -3.1
v 5.5 7.2 -3.1
v 4.8 7.2 -3.2
v 4.9 7.2 -3.2
v 5.3 7.2 -3.2
v 5.4 7.2 -3.2
v 4.7 7.2 -3.3
v 4.8 7.2 -3.3
v 4.6 7.2 -3.4
v 4.7 7.2 -3.4
v 4.8 7.2 -3.5
v 4.9 7.2 -3.5
v 4.6 7.2 -3.6
v 4.8 7.2 -3.6
v 4.3 7.3 -2.8
v 4.4 7.3 -2.8
v 4.1 7.3 -2.9
v 4.3 7.3 -2.9
v 4.4 7.3 -2.9
v 4.1 7.3 -3
v 4.3 7.3 -3
v 4.4 7.3 -3
v 4.3 7.3 -3.1
v 4.4 7.3 -3.1
v 4.2 7.4 -2.8
v 4.3 7.4 -2.8
v 4.2 7.4 -2.9
v 4.3 7.4 -2.9
v 4.2 7.4 -3
v 4.3 7.4 -3
v 4.2 7.4 -3.1
v 4.3 7.4 -3.1
v 4.6 7.3 -2.3
v 4.8 7.3 -2.3
v 4.8 7.3 -2.4
v 4.9 7.3 -2.4
v 4.6 7.3 -2.5
v 4.7 7.3 -2.5
v 4.7 7.3 -2.6
v 4.8 7.3 -2.6
v 4.8 7.3 -2.7
v 4.9 7.3 -2.7
v 5.3 7.3 -2.7
v 5.4 7.3 -2.7
v 4.6 7.3 -2.8
v 4.9 7.3 -2.8
v 5.1 7.3 -2.8
v 5.3 7.3 -2.8
v 5.4 7.3 -2.8
v 5.5 7.3 -2.8
v 5.4 7.3 -2.9
v 5.5 7.3 -2.9
v 5.4 7.3 -3
v 5.5 7.3 -3
v 4.6 7.3 -3.1
v 4.9 7.3 -3.1
v 5.1 7.3 -3.1
v 5.3 7.3 -3.1
v 5.4 7.3 -3.1
v 5.5 7.3 -3.1
v 4.8 7.3 -3.2
v 4.9 7.3 -3.2
v 5.3 7.3 -3.2
v 5.4 7.3 -3.2
v 4.7 7.3 -3.3
v 4.8 7.3 -3.3
v 4.6 7.3 -3.4
v 4.7 7.3 -3.4
v 4.8 7.3 -3.5
v 4.9 7.3 -3.5
v 4.6 7.3 -3.6
v 4.8 7.3 -3.6
v 4.1 7.4 -2.9
v 4.2 7.4 -2.9
v 4.3 7.4 -2.9
v 4.1 7.4 -3
v 4.2 7.4 -3
v 4.3 7.4 -3
v 4.2 7.5 -2.8
v 4.3 7.5 -2.8
v 4.2 7.5 -2.9
v 4.3 7.5 -2.9
v 4.2 7.5 -3
v 4.3 7.5 -3
v 4.2 7.5 -3.1
v 4.3 7.5 -3.1
v 4.3 7.6 -2.8
v 4.6 7.6 -2.8
v 4.3 7.6 -3.1
v 4.6 7.6 -3.1

# faces
f 3/1/1 2/1/1 1/1/1
f 4/1/1 2/1/1 3/1/1
f 9/2/1 6/2/1 5/2/1
f 10/2/1 6/2/1 9/2/1
f 11/2/1 8/2/1 7/2/1
f 12/2/1 8/2/1 11/2/1
f 17/4/1 14/4/1 13/4/1
f 18/4/1 14/4/1 17/4/1
f 19/4/1 16/4/1 15/4/1
f 20/4/1 16/4/1 19/4/1
f 22/4/1 19/4/1 18/4/1
f 23/4/1 19/4/1 22/4/1
f 25/4/1 22/4/1 21/4/1
f 25/4/1 24/4/1 23/4/1
f 25/4/1 23/4/1 22/4/1
f 26/4/1 24/4/1 25/4/1
f 29/3/1 28/3/1 27/3/1
f 30/3/1 28/3/1 29/3/1
f 31/3/1 28/3/1 30/3/1
f 32/3/1 28/3/1 31/3/1
f 35/4/1 34/4/1 33/4/1
f 36/4/1 34/4/1 35/4/1
f 43/3/1 38/3/1 37/3/1
f 44/4/1 39/4/1 38/4/1
f 44/3/1 38/3/1 43/3/1
f 45/4/1 39/4/1 44/4/1
f 46/4/1 41/4/1 40/4/1
f 47/3/1 42/3/1 41/3/1
f 47/4/1 41/4/1 46/4/1
f 48/3/1 42/3/1 47/3/1
f 53/3/1 50/3/1 49/3/1
f 54/3/1 50/3/1 53/3/1
f 55/3/1 52/3/1 51/3/1
f 56/3/1 52/3/1 55/3/1
f 57/4/2 58/4/2 59/4/2
f 59/4/2 58/4/2 60/4/2
f 61/3/2 62/3/2 65/3/2
f 65/3/2 62/3/2 66/3/2
f 63/3/2 64/3/2 67/3/2
f 67/3/2 64/3/2 68/3/2
f 69/3/2 70/3/2 75/3/2
f 70/4/2 71/4/2 76/4/2
f 75/3/2 70/3/2 76/3/2
f 76/4/2 71/4/2 77/4/2
f 72/4/2 73/4/2 78/4/2
f 73/3/2 74/3/2 79/3/2
f 78/4/2 73/4/2 79/4/2
f 79/3/2 74/3/2 80/3/2
f 81/4/2 82/4/2 83/4/2
f 83/4/2 82/4/2 84/4/2
f 85/4/2 86/4/2 87/4/2
f 87/4/2 86/4/2 88/4/2
f 89/3/2 90/3/2 95/3/2
f 95/3/2 90/3/2 96/3/2
f 91/3/2 92/3/2 97/3/2
f 97/3/2 92/3/2 98/3/2
f 93/3/2 94/3/2 99/3/2
f 99/3/2 94/3/2 100/3/2
f 101/3/2 102/3/2 105/3/2
f 105/3/2 102/3/2 106/3/2
f 103/3/2 104/3/2 107/3/2
f 107/3/2 104/3/2 108/3/2
f 111/3/3 110/3/3 109/3/3
f 112/3/3 110/3/3 111/3/3
f 115/3/3 114/3/3 113/3/3
f 116/3/3 114/3/3 115/3/3
f 119/3/3 118/3/3 117/3/3
f 120/3/3 118/3/3 119/3/3
f 124/2/3 122/2/3 121/2/3
f 125/2/3 122/2/3 124/2/3
f 128/4/3 124/4/3 123/4/3
f 128/4/3 126/4/3 125/4/3
f 128/4/3 125/4/3 124/4/3
f 130/3/3 128/3/3 127/3/3
f 131/4/3 126/4/3 128/4/3
f 131/3/3 128/3/3 130/3/3
f 132/4/3 130/4/3 129/4/3
f 132/4/3 131/4/3 130/4/3
f 133/4/3 126/4/3 131/4/3
f 133/4/3 131/4/3 132/4/3
f 134/4/3 126/4/3 133/4/3
f 135/4/3 132/4/3 129/4/3
f 137/4/3 135/4/3 129/4/3
f 137/4/3 136/4/3 135/4/3
f 138/4/3 136/4/3 137/4/3
f 139/4/3 136/4/3 138/4/3
f 140/4/3 136/4/3 139/4/3
f 141/4/3 136/4/3 140/4/3
f 142/3/3 141/3/3 140/3/3
f 143/3/3 141/3/3 142/3/3
f 146/3/3 145/3/3 144/3/3
f 147/3/3 145/3/3 146/3/3
f 150/1/3 149/1/3 148/1/3
f 151/1/3 150/1/3 148/1/3
f 152/1/3 150/1/3 151/1/3
f 155/2/3 154/2/3 153/2/3
f 156/2/3 154/2/3 155/2/3
f 159/3/3 158/3/3 157/3/3
f 160/3/3 158/3/3 159/3/3
f 161/2/4 162/2/4 163/2/4
f 163/2/4 162/2/4 164/2/4
f 165/3/4 166/3/4 167/3/4
f 167/3/4 166/3/4 168/3/4
f 169/1/4 170/1/4 171/1/4
f 169/1/4 171/1/4 172/1/4
f 172/1/4 171/1/4 173/1/4
f 174/2/4 175/2/4 177/2/4
f 177/2/4 175/2/4 178/2/4
f 176/4/4 177/4/4 181/4/4
f 178/4/4 179/4/4 181/4/4
f 177/4/4 178/4/4 181/4/4
f 180/3/4 181/3/4 183/3/4
f 181/4/4 179/4/4 184/4/4
f 183/3/4 181/3/4 184/3/4
f 182/4/4 183/4/4 185/4/4
f 183/4/4 184/4/4 185/4/4
f 184/4/4 179/4/4 186/4/4
f 185/4/4 184/4/4 186/4/4
f 186/4/4 179/4/4 187/4/4
f 182/4/4 185/4/4 188/4/4
f 182/4/4 188/4/4 190/4/4
f 188/4/4 189/4/4 190/4/4
f 190/4/4 189/4/4 191/4/4
f 191/4/4 189/4/4 192/4/4
f 192/4/4 189/4/4 193/4/4
f 193/4/4 189/4/4 194/4/4
f 193/3/4 194/3/4 195/3/4
f 195/3/4 194/3/4 196/3/4
f 197/3/4 198/3/4 199/3/4
f 199/3/4 198/3/4 200/3/4
f 201/3/4 202/3/4 203/3/4
f 203/3/4 202/3/4 204/3/4
f 205/3/4 206/3/4 207/3/4
f 207/3/4 206/3/4 208/3/4
f 209/3/4 210/3/4 211/3/4
f 211/3/4 210/3/4 212/3/4
f 215/4/5 214/4/5 213/4/5
f 216/4/5 214/4/5 215/4/5
f 221/3/5 218/3/5 217/3/5
f 222/3/5 218/3/5 221/3/5
f 223/4/5 220/4/5 219/4/5
f 224/4/5 220/4/5 223/4/5
f 227/3/5 226/3/5 225/3/5
f 229/3/5 227/3/5 225/3/5
f 229/3/5 228/3/5 227/3/5
f 230/3/5 228/3/5 229/3/5
f 231/4/5 230/4/5 229/4/5
f 231/3/5 228/3/5 230/3/5
f 232/3/5 228/3/5 231/3/5
f 233/4/5 232/4/5 231/4/5
f 233/3/5 228/3/5 232/3/5
f 234/3/5 228/3/5 233/3/5
f 237/4/5 231/4/5 229/4/5
f 237/4/5 233/4/5 231/4/5
f 237/4/5 234/4/5 233/4/5
f 238/4/5 234/4/5 237/4/5
f 240/3/5 236/3/5 235/3/5
f 241/3/5 236/3/5 240/3/5
f 243/3/5 242/3/5 241/3/5
f 243/3/5 241/3/5 240/3/5
f 243/3/5 240/3/5 239/3/5
f 244/3/5 242/3/5 243/3/5
f 245/3/5 243/3/5 239/3/5
f 249/3/5 245/3/5 239/3/5
f 249/3/5 246/3/5 245/3/5
f 250/3/5 246/3/5 249/3/5
f 251/3/5 246/3/5 250/3/5
f 252/3/5 246/3/5 251/3/5
f 253/4/5 248/4/5 247/4/5
f 254/4/5 248/4/5 253/4/5
f 255/3/5 251/3/5 250/3/5
f 256/3/5 251/3/5 255/3/5
f 257/4/5 253/4/5 247/4/5
f 258/3/5 254/3/5 253/3/5
f 258/4/5 253/4/5 257/4/5
f 259/4/5 257/4/5 247/4/5
f 260/3/5 258/3/5 257/3/5
f 260/4/5 257/4/5 259/4/5
f 261/3/5 254/3/5 258/3/5
f 261/3/5 258/3/5 260/3/5
f 261/3/5 260/3/5 259/3/5
f 262/3/5 254/3/5 261/3/5
f 263/3/5 261/3/5 259/3/5
f 264/3/5 261/3/5 263/3/5
f 268/4/5 266/4/5 265/4/5
f 269/4/5 266/4/5 268/4/5
f 270/1/5 268/1/5 267/1/5
f 271/3/5 269/3/5 268/3/5
f 271/1/5 268/1/5 270/1/5
f 272/3/5 269/3/5 271/3/5
f 273/4/5 272/4/5 271/4/5
f 274/4/5 272/4/5 273/4/5
f 277/2/5 276/2/5 275/2/5
f 278/2/5 276/2/5 277/2/5
f 281/2/5 280/2/5 279/2/5
f 282/2/5 280/2/5 281/2/5
f 283/3/6 284/3/6 285/3/6
f 283/3/6 285/3/6 287/3/6
f 285/3/6 286/3/6 287/3/6
f 287/3/6 286/3/6 288/3/6
f 287/4/6 288/4/6 289/4/6
f 288/3/6 286/3/6 289/3/6
f 289/3/6 286/3/6 290/3/6
f 289/4/6 290/4/6 291/4/6
f 290/3/6 286/3/6 291/3/6
f 291/3/6 286/3/6 292/3/6
f 287/4/6 289/4/6 295/4/6
f 289/4/6 291/4/6 295/4/6
f 291/4/6 292/4/6 295/4/6
f 295/4/6 292/4/6 296/4/6
f 293/3/6 294/3/6 298/3/6
f 298/3/6 294/3/6 299/3/6
f 297/3/6 298/3/6 301/3/6
f 299/3/6 300/3/6 301/3/6
f 298/3/6 299/3/6 301/3/6
f 301/3/6 300/3/6 302/3/6
f 297/3/6 301/3/6 303/3/6
f 296/4/6 297/4/6 305/4/6
f 295/4/6 296/4/6 305/4/6
f 305/4/6 297/4/6 306/4/6
f 303/3/6 304/3/6 307/3/6
f 306/4/6 297/4/6 307/4/6
f 297/3/6 303/3/6 307/3/6
f 307/3/6 304/3/6 308/3/6
f 308/3/6 304/3/6 309/3/6
f 309/3/6 304/3/6 310/3/6
f 305/4/6 306/4/6 311/4/6
f 311/4/6 306/4/6 312/4/6
f 308/3/6 309/3/6 313/3/6
f 313/3/6 309/3/6 314/3/6
f 305/4/6 311/4/6 315/4/6
f 311/3/6 312/3/6 316/3/6
f 315/4/6 311/4/6 316/4/6
f 305/4/6 315/4/6 317/4/6
f 315/3/6 316/3/6 318/3/6
f 317/4/6 315/4/6 318/4/6
f 316/3/6 312/3/6 319/3/6
f 318/3/6 316/3/6 319/3/6
f 317/3/6 318/3/6 319/3/6
f 319/3/6 312/3/6 320/3/6
f 317/3/6 319/3/6 321/3/6
f 321/3/6 319/3/6 322/3/6
f 323/1/6 324/1/6 326/1/6
f 324/1/6 325/1/6 326/1/6
f 326/1/6 325/1/6 327/1/6
f 327/1/6 325/1/6 328/1/6
f 329/2/6 330/2/6 331/2/6
f 331/2/6 330/2/6 332/2/6
f 333/2/6 334/2/6 335/2/6
f 335/2/6 334/2/6 336/2/6
f 337/4/6 338/4/6 339/4/6
f 339/4/6 338/4/6 340/4/6
